<?xml version="1.0" encoding="iso-8859-1"?>
<!-- Generator: Adobe Illustrator 19.0.0, SVG Export Plug-In . SVG Version: 6.00 Build 0)  -->
<!-- License: CC0. Made by SVG Repo: https://www.svgrepo.com/svg/288632/chip-motherboard -->
<svg version="1.1" id="Layer_1" xmlns="http://www.w3.org/2000/svg" xmlns:xlink="http://www.w3.org/1999/xlink" x="0px" y="0px"
	 viewBox="0 0 512 512" style="enable-background:new 0 0 512 512;" xml:space="preserve">
<path style="fill:#73C470;" d="M504.209,0h-44.14c-4.303,0-7.791,3.488-7.791,7.791v9.891c0,17.691-14.393,32.082-32.082,32.082
	c-17.691,0-32.082-14.393-32.082-32.082V7.791c0-4.303-3.488-7.791-7.791-7.791H136.804c-2.067,0-4.048,0.82-5.51,2.282
	L2.282,131.295C0.82,132.755,0,134.737,0,136.804v367.405C0,508.512,3.488,512,7.791,512H380.32c4.303,0,7.791-3.488,7.791-7.791
	v-9.891c0-17.69,14.393-32.082,32.082-32.082s32.082,14.393,32.082,32.082v9.891c0,4.303,3.488,7.791,7.791,7.791h44.141
	c4.303,0,7.791-3.488,7.791-7.791V7.791C512,3.488,508.512,0,504.209,0z"/>
<path style="fill:#EBF25F;" d="M349.847,148.878H165.082c-9.22,0-16.696,7.475-16.696,16.696v184.765
	c0,9.22,7.475,16.696,16.696,16.696h184.765c9.22,0,16.696-7.475,16.696-16.696v-30.896v-92.808v-26.288v-34.774
	C366.543,156.354,359.069,148.878,349.847,148.878z"/>
<path style="fill:#547475;" d="M333.152,320.287c0,7.376-5.98,13.357-13.357,13.357H195.134c-7.377,0-13.357-5.98-13.357-13.357
	V195.626c0-7.377,5.979-13.357,13.357-13.357h124.661c7.376,0,13.357,5.979,13.357,13.357V320.287z"/>
<path style="opacity:0.15;fill:#231F20;enable-background:new    ;" d="M199.586,320.287V195.626
	c0-7.377,5.979-13.357,13.357-13.357h-17.809c-7.377,0-13.357,5.979-13.357,13.357v124.661c0,7.376,5.979,13.357,13.357,13.357
	h17.809C205.567,333.644,199.586,327.663,199.586,320.287z"/>
<circle style="fill:#384949;" cx="257.469" cy="256" r="39.324"/>
<g>
	<path style="fill:#AAEAA4;" d="M47.059,181.732c-4.611,0-8.36-3.738-8.36-8.348c0-4.61,3.725-8.348,8.336-8.348h0.023
		c4.611,0,8.348,3.738,8.348,8.348C55.407,177.995,51.671,181.732,47.059,181.732z"/>
	<path style="fill:#AAEAA4;" d="M47.059,272.807c-4.611,0-8.36-3.738-8.36-8.348c0-4.61,3.725-8.348,8.336-8.348h0.023
		c4.611,0,8.348,3.738,8.348,8.348C55.407,269.069,51.671,272.807,47.059,272.807z"/>
	<path style="fill:#AAEAA4;" d="M47.059,242.449c-4.611,0-8.36-3.738-8.36-8.348c0-4.61,3.725-8.348,8.336-8.348h0.023
		c4.611,0,8.348,3.738,8.348,8.348C55.407,238.711,51.671,242.449,47.059,242.449z"/>
	<path style="fill:#AAEAA4;" d="M47.059,212.09c-4.611,0-8.36-3.738-8.36-8.348c0-4.61,3.725-8.348,8.336-8.348h0.023
		c4.611,0,8.348,3.738,8.348,8.348C55.406,208.353,51.671,212.09,47.059,212.09z"/>
	<path style="fill:#AAEAA4;" d="M47.059,332.071c-4.611,0-8.36-3.738-8.36-8.348s3.725-8.348,8.336-8.348h0.023
		c4.611,0,8.348,3.738,8.348,8.348C55.407,328.333,51.671,332.071,47.059,332.071z"/>
	<path style="fill:#AAEAA4;" d="M47.059,423.146c-4.611,0-8.36-3.738-8.36-8.348s3.725-8.348,8.336-8.348h0.023
		c4.611,0,8.348,3.738,8.348,8.348C55.407,419.409,51.671,423.146,47.059,423.146z"/>
	<path style="fill:#AAEAA4;" d="M47.059,392.789c-4.611,0-8.36-3.738-8.36-8.348s3.725-8.348,8.336-8.348h0.023
		c4.611,0,8.348,3.738,8.348,8.348C55.407,389.051,51.671,392.789,47.059,392.789z"/>
	<path style="fill:#AAEAA4;" d="M47.059,362.429c-4.611,0-8.36-3.738-8.36-8.348c0-4.61,3.725-8.348,8.336-8.348h0.023
		c4.611,0,8.348,3.738,8.348,8.348C55.407,358.692,51.671,362.429,47.059,362.429z"/>
	<path style="fill:#AAEAA4;" d="M77.112,257.224c-4.611,0-8.36-3.738-8.36-8.348c0-4.61,3.725-8.348,8.336-8.348h0.023
		c4.611,0,8.348,3.738,8.348,8.348C85.459,253.487,81.723,257.224,77.112,257.224z"/>
	<path style="fill:#AAEAA4;" d="M77.112,226.866c-4.611,0-8.36-3.738-8.36-8.348s3.725-8.348,8.336-8.348h0.023
		c4.611,0,8.348,3.738,8.348,8.348C85.459,223.128,81.723,226.866,77.112,226.866z"/>
	<path style="fill:#AAEAA4;" d="M77.112,196.508c-4.611,0-8.36-3.738-8.36-8.348c0-4.61,3.725-8.348,8.336-8.348h0.023
		c4.611,0,8.348,3.738,8.348,8.348C85.458,192.77,81.723,196.508,77.112,196.508z"/>
	<path style="fill:#AAEAA4;" d="M77.112,407.563c-4.611,0-8.36-3.738-8.36-8.348s3.725-8.348,8.336-8.348h0.023
		c4.611,0,8.348,3.738,8.348,8.348C85.459,403.827,81.723,407.563,77.112,407.563z"/>
	<path style="fill:#AAEAA4;" d="M77.112,377.206c-4.611,0-8.36-3.738-8.36-8.348c0-4.61,3.725-8.348,8.336-8.348h0.023
		c4.611,0,8.348,3.738,8.348,8.348C85.459,373.468,81.723,377.206,77.112,377.206z"/>
	<path style="fill:#AAEAA4;" d="M77.112,346.847c-4.611,0-8.36-3.738-8.36-8.348c0-4.61,3.725-8.348,8.336-8.348h0.023
		c4.611,0,8.348,3.738,8.348,8.348C85.459,343.109,81.723,346.847,77.112,346.847z"/>
	<path style="fill:#AAEAA4;" d="M100.5,477.818c-4.61,0-8.348-3.725-8.348-8.336v-0.024c0-4.61,3.738-8.348,8.348-8.348
		s8.348,3.738,8.348,8.348S105.11,477.818,100.5,477.818z"/>
	<path style="fill:#AAEAA4;" d="M191.575,477.818c-4.611,0-8.348-3.725-8.348-8.336v-0.024c0-4.61,3.736-8.348,8.348-8.348
		s8.348,3.738,8.348,8.348S196.186,477.818,191.575,477.818z"/>
	<path style="fill:#AAEAA4;" d="M161.217,477.818c-4.611,0-8.348-3.725-8.348-8.336v-0.024c0-4.61,3.736-8.348,8.348-8.348
		s8.348,3.738,8.348,8.348S165.827,477.818,161.217,477.818z"/>
	<path style="fill:#AAEAA4;" d="M130.857,477.818c-4.611,0-8.348-3.725-8.348-8.336v-0.024c0-4.61,3.736-8.348,8.348-8.348
		c4.611,0,8.348,3.738,8.348,8.348S135.469,477.818,130.857,477.818z"/>
	<path style="fill:#AAEAA4;" d="M253.61,477.818c-4.611,0-8.348-3.725-8.348-8.336v-0.024c0-4.61,3.736-8.348,8.348-8.348
		s8.348,3.738,8.348,8.348S258.22,477.818,253.61,477.818z"/>
	<path style="fill:#AAEAA4;" d="M344.685,477.818c-4.61,0-8.348-3.725-8.348-8.336v-0.024c0-4.61,3.738-8.348,8.348-8.348
		c4.61,0,8.348,3.738,8.348,8.348S349.294,477.818,344.685,477.818z"/>
	<path style="fill:#AAEAA4;" d="M314.326,477.818c-4.61,0-8.348-3.725-8.348-8.336v-0.024c0-4.61,3.738-8.348,8.348-8.348
		c4.61,0,8.348,3.738,8.348,8.348S318.936,477.818,314.326,477.818z"/>
	<path style="fill:#AAEAA4;" d="M283.967,477.818c-4.61,0-8.348-3.725-8.348-8.336v-0.024c0-4.61,3.738-8.348,8.348-8.348
		c4.61,0,8.348,3.738,8.348,8.348S288.578,477.818,283.967,477.818z"/>
	<path style="fill:#AAEAA4;" d="M175.992,447.766c-4.611,0-8.348-3.725-8.348-8.336v-0.025c0-4.61,3.736-8.348,8.348-8.348
		c4.611,0,8.348,3.738,8.348,8.348S180.604,447.766,175.992,447.766z"/>
	<path style="fill:#AAEAA4;" d="M145.634,447.766c-4.611,0-8.348-3.725-8.348-8.336v-0.025c0-4.61,3.736-8.348,8.348-8.348
		c4.611,0,8.348,3.738,8.348,8.348S150.244,447.766,145.634,447.766z"/>
	<path style="fill:#AAEAA4;" d="M115.275,447.766c-4.611,0-8.348-3.725-8.348-8.336v-0.025c0-4.61,3.736-8.348,8.348-8.348
		c4.611,0,8.348,3.738,8.348,8.348S119.886,447.766,115.275,447.766z"/>
	<path style="fill:#AAEAA4;" d="M329.102,447.766c-4.61,0-8.348-3.725-8.348-8.336v-0.025c0-4.61,3.738-8.348,8.348-8.348
		c4.61,0,8.348,3.738,8.348,8.348S333.712,447.766,329.102,447.766z"/>
	<path style="fill:#AAEAA4;" d="M298.743,447.766c-4.61,0-8.348-3.725-8.348-8.336v-0.025c0-4.61,3.738-8.348,8.348-8.348
		c4.61,0,8.348,3.738,8.348,8.348S303.353,447.766,298.743,447.766z"/>
	<path style="fill:#AAEAA4;" d="M268.385,447.766c-4.61,0-8.348-3.725-8.348-8.336v-0.025c0-4.61,3.738-8.348,8.348-8.348
		s8.348,3.738,8.348,8.348S272.995,447.766,268.385,447.766z"/>
</g>
<circle style="fill:#DBDDDD;" cx="49.525" cy="464.095" r="16.325"/>
<path style="fill:#EBF25F;" d="M512,104.279h-24.93c-7.377,0-13.357,5.98-13.357,13.357v276.571c0,7.376,5.979,13.357,13.357,13.357
	H512V104.279z"/>
<path style="opacity:0.15;fill:#231F20;enable-background:new    ;" d="M136.804,0c-2.067,0-4.048,0.82-5.51,2.282L2.282,131.295
	C0.82,132.755,0,134.737,0,136.804v367.405C0,508.512,3.488,512,7.791,512h10.016V140.819L158.629,0H136.804z"/>
</svg>
